<svg width="62" height="62" viewBox="0 0 62 62" fill="none" xmlns="http://www.w3.org/2000/svg">
<g clip-path="url(#clip0_346_74)">
<path d="M59.8954 28.6401L55.6735 26.8129L52.0884 19.8365C51.1195 17.9263 49.1539 16.7358 47.0083 16.7497H40.8347V15.0056C40.8347 11.8495 38.3155 9.2749 35.1595 9.2749H5.64797C2.49196 9.2749 0.00036831 11.8634 0.00036831 15.0056V41.7209C-0.027316 43.645 1.50916 45.223 3.43322 45.2507C3.44707 45.2507 3.46091 45.2507 3.48859 45.2507H4.22223C4.22223 45.3891 4.20838 45.4445 4.20838 45.5275C4.19454 49.4864 7.39208 52.7116 11.3509 52.7254C15.3098 52.7393 18.535 49.5417 18.5489 45.5829C18.5489 45.5552 18.5489 45.5414 18.5489 45.5137C18.5489 45.4168 18.5489 45.3753 18.535 45.2368H42.3851C42.3851 45.3753 42.3851 45.4306 42.3851 45.5137C42.3712 49.4725 45.5688 52.6978 49.5276 52.7116C53.4865 52.7254 56.7117 49.5279 56.7255 45.569C56.7255 45.5414 56.7255 45.5275 56.7255 45.4998C56.7255 45.4029 56.7255 45.3614 56.7255 45.223H58.5112C60.4352 45.223 61.9994 43.6588 61.9994 41.7348C61.9994 41.7209 61.9994 41.7071 61.9994 41.6794V31.8515C62.0271 30.4949 61.1965 29.2076 59.8954 28.6401ZM11.3925 49.9709C8.95625 49.9709 6.99066 48.0053 6.99066 45.569C6.99066 43.1328 8.95625 41.1672 11.3925 41.1672C13.8287 41.1672 15.7943 43.1328 15.7943 45.569C15.7943 47.9914 13.8148 49.9709 11.3925 49.9709ZM38.0663 42.5099H17.8844C16.7217 39.9768 14.1747 38.3573 11.3925 38.3711C8.59635 38.3573 6.06323 39.963 4.90049 42.5099H3.48859C3.05949 42.5099 2.7688 42.1777 2.7688 41.7486V34.6199H38.0663V42.5099ZM38.0663 15.0194V31.8515H2.7688V15.0194C2.7688 13.3999 4.02844 12.0572 5.64797 12.0572H35.1595C36.779 12.071 38.0801 13.3999 38.0663 15.0056V15.0194ZM40.8347 19.5319H47.0083C48.1019 19.5181 49.1262 20.1133 49.6383 21.0961L52.4068 26.453H40.8347V19.5319ZM49.5691 49.9709C47.1329 49.9709 45.1673 48.0053 45.1673 45.569C45.1673 43.1328 47.1329 41.1672 49.5691 41.1672C52.0054 41.1672 53.9709 43.1328 53.9709 45.569C53.9709 47.9914 52.0054 49.9709 49.5691 49.9709ZM59.2448 41.7486C59.2448 42.1777 58.9541 42.5099 58.525 42.5099H56.0611C54.3862 38.9248 50.1228 37.3745 46.5377 39.0494C45.0151 39.7553 43.7831 40.9873 43.0772 42.5099H40.8347V29.2215H54.4L58.8019 31.1594C59.0787 31.2978 59.2586 31.6023 59.2448 31.9068V41.7486Z" fill="white"/>
</g>
<defs>
<clipPath id="clip0_346_74">
<rect width="62" height="62" fill="white"/>
</clipPath>
</defs>
</svg>
