<svg width="43" height="42" viewBox="0 0 43 42" fill="none" xmlns="http://www.w3.org/2000/svg">
<path d="M41.2327 19.0274C41.0762 8.48831 32.2956 0 21.458 0C10.6234 0 1.83978 8.48479 1.6833 19.0274C1.67772 19.2078 1.68198 19.1652 1.67969 25.4556C1.67969 27.9297 3.74026 29.9427 6.27324 29.9427H6.2739C8.80688 29.9427 10.8674 27.9297 10.8674 25.4556V19.1655C10.8674 16.6914 8.80688 14.6788 6.27324 14.6788C6.08952 14.6788 5.90843 14.6906 5.72997 14.7112C7.76068 8.10699 14.0424 3.28125 21.458 3.28125C28.8732 3.28125 35.1553 8.10699 37.1861 14.7112C37.0076 14.6906 36.8262 14.6788 36.6421 14.6788C34.1095 14.6788 32.0486 16.6914 32.0486 19.1655V25.4556C32.0486 27.9297 34.1095 29.9427 36.6421 29.9427H36.6428C36.6874 29.9427 36.7314 29.9404 36.7756 29.9392C35.0983 33.147 31.6808 35.3487 27.7467 35.3487H26.3042C25.6067 33.3893 23.6987 31.9787 21.458 31.9787C18.6294 31.9787 16.3281 34.2263 16.3281 36.9894C16.3281 39.7522 18.6294 42 21.458 42C23.6987 42 25.6067 40.5894 26.3042 38.63H27.7467C35.1849 38.63 41.2363 32.7202 41.2363 25.456V25.4556V19.1655C41.2363 19.119 41.234 19.0735 41.2327 19.0274ZM6.2739 17.96C6.95463 17.96 7.50807 18.5006 7.50807 19.1655V25.4556C7.50807 26.1205 6.95463 26.6611 6.2739 26.6611H6.27324C5.59283 26.6611 5.03906 26.1205 5.03906 25.4556C5.04037 21.2894 5.03611 19.559 5.04169 19.1152C5.06892 18.474 5.60989 17.96 6.2739 17.96ZM21.458 38.7188C20.4817 38.7188 19.6874 37.943 19.6874 36.9894C19.6874 36.0358 20.4817 35.26 21.458 35.26C22.4343 35.26 23.2286 36.0358 23.2286 36.9894C23.2286 37.943 22.4343 38.7188 21.458 38.7188ZM37.877 25.4556C37.877 26.1205 37.3232 26.6611 36.6428 26.6611H36.6421C35.9617 26.6611 35.4079 26.1205 35.4079 25.4556V19.1655C35.4079 18.5006 35.9617 17.96 36.6428 17.96C37.3061 17.96 37.8471 18.474 37.8743 19.1152C37.8792 19.5087 37.875 19.0306 37.877 25.4556Z" fill="white"/>
</svg>
