<svg width="51" height="51" viewBox="0 0 51 51" fill="none" xmlns="http://www.w3.org/2000/svg">
<g clip-path="url(#clip0_346_20)">
<path d="M43.5625 46.7505H5.3125C2.38212 46.7505 0 44.3662 0 41.438V11.688C0 11.1015 0.476 10.6255 1.0625 10.6255C1.649 10.6255 2.125 11.1015 2.125 11.688V41.438C2.125 43.1954 3.55512 44.6255 5.3125 44.6255H43.5625C44.1469 44.6255 44.625 44.1495 44.625 43.563V37.188C44.625 36.6015 45.101 36.1255 45.6875 36.1255C46.274 36.1255 46.75 36.6015 46.75 37.188V43.563C46.75 45.3204 45.3199 46.7505 43.5625 46.7505Z" fill="white"/>
<path d="M45.6875 25.5C45.101 25.5 44.625 25.024 44.625 24.4375V18.0625C44.625 17.476 44.1469 17 43.5625 17H5.3125C3.87812 17 2.54362 16.4411 1.55337 15.4254C0.558875 14.4564 0 13.1219 0 11.6875C0 8.75925 2.38212 6.375 5.3125 6.375H23.4812C24.0677 6.375 24.5437 6.851 24.5437 7.4375C24.5437 8.024 24.0677 8.5 23.4812 8.5H5.3125C3.55512 8.5 2.125 9.93012 2.125 11.6875C2.125 12.5439 2.4565 13.3365 3.05575 13.923C3.6635 14.5435 4.45825 14.875 5.3125 14.875H43.5625C45.3199 14.875 46.75 16.3051 46.75 18.0625V24.4375C46.75 25.024 46.274 25.5 45.6875 25.5Z" fill="white"/>
<path d="M39.3126 17C38.7261 17 38.2501 16.524 38.2501 15.9375V9.5625C38.2501 8.976 37.772 8.5 37.1876 8.5H33.2988C32.7123 8.5 32.2363 8.024 32.2363 7.4375C32.2363 6.851 32.7123 6.375 33.2988 6.375H37.1876C38.945 6.375 40.3751 7.80512 40.3751 9.5625V15.9375C40.3751 16.524 39.8991 17 39.3126 17Z" fill="white"/>
<path d="M38.25 17.0002C37.8845 17.0002 37.5296 16.8111 37.332 16.4732L30.4363 4.65185L10.1086 16.8494C9.61133 17.1511 8.95471 16.9896 8.65083 16.4839C8.34908 15.9824 8.51271 15.3279 9.01633 15.0261L30.2663 2.2761C30.5086 2.12948 30.8018 2.09123 31.076 2.1571C31.3522 2.22723 31.586 2.40573 31.7305 2.6501L39.1679 15.4001C39.4654 15.908 39.2933 16.5582 38.7855 16.8536C38.6176 16.9535 38.4327 17.0002 38.25 17.0002Z" fill="white"/>
<path d="M49.9375 38.2505H39.3125C35.2113 38.2505 31.875 34.9142 31.875 30.813C31.875 26.7117 35.2113 23.3755 39.3125 23.3755H49.9375C50.524 23.3755 51 23.8515 51 24.438V37.188C51 37.7745 50.524 38.2505 49.9375 38.2505ZM39.3125 25.5005C36.3821 25.5005 34 27.8847 34 30.813C34 33.7412 36.3821 36.1255 39.3125 36.1255H48.875V25.5005H39.3125Z" fill="white"/>
<path d="M39.3125 33.9995C37.5551 33.9995 36.125 32.5694 36.125 30.812C36.125 29.0546 37.5551 27.6245 39.3125 27.6245C41.0699 27.6245 42.5 29.0546 42.5 30.812C42.5 32.5694 41.0699 33.9995 39.3125 33.9995ZM39.3125 29.7495C38.7281 29.7495 38.25 30.2255 38.25 30.812C38.25 31.3985 38.7281 31.8745 39.3125 31.8745C39.8969 31.8745 40.375 31.3985 40.375 30.812C40.375 30.2255 39.8969 29.7495 39.3125 29.7495Z" fill="white"/>
</g>
<defs>
<clipPath id="clip0_346_20">
<rect width="51" height="51" fill="white"/>
</clipPath>
</defs>
</svg>
